<?xml version="1.0" encoding="utf-8"?>
<!-- Generator: Adobe Illustrator 25.2.1, SVG Export Plug-In . SVG Version: 6.00 Build 0)  -->
<svg version="1.1" xmlns="http://www.w3.org/2000/svg" xmlns:xlink="http://www.w3.org/1999/xlink" x="0px" y="0px"
	 viewBox="0 0 160 160" style="enable-background:new 0 0 160 160;" xml:space="preserve">
<style type="text/css">
	.st0{fill:#020035;}
	.st1{fill:#FFFFFF;}
</style>
<g id="Base">
	<rect class="st0" width="160" height="160"/>
</g>
<g id="Logo">
	<polygon class="st1" points="73.97,114.04 68.72,123.5 61.22,123.5 55.97,114.04 16.31,42.5 34.31,42.5 64.97,97.79 	"/>
	<polygon class="st1" points="106.97,114.04 101.72,123.5 94.22,123.5 88.97,114.04 49.31,42.5 67.31,42.5 97.97,97.79 	"/>
	<polygon class="st1" points="113.62,42.5 73.97,114.04 68.72,123.5 61.22,123.5 55.97,114.04 64.97,97.79 95.62,42.5 	"/>
	<polygon class="st1" points="146.62,42.5 106.97,114.04 101.72,123.5 94.22,123.5 88.97,114.04 97.97,97.79 128.62,42.5 	"/>
	<rect x="112.27" y="57.5" class="st0" width="33.5" height="13.5"/>
	<rect x="96.52" y="42.5" class="st1" width="41.85" height="14.98"/>
	<polygon class="st1" points="122.32,86 95.76,86 104.24,71 130.8,71 	"/>
</g>
</svg>
